<?xml version="1.0" encoding="iso-8859-1"?>
<!-- Generator: Adobe Illustrator 19.0.0, SVG Export Plug-In . SVG Version: 6.00 Build 0)  -->
<svg version="1.1" id="Layer_1" xmlns="http://www.w3.org/2000/svg" xmlns:xlink="http://www.w3.org/1999/xlink" x="0px" y="0px"
	 viewBox="0 0 512 512" style="enable-background:new 0 0 512 512;" xml:space="preserve">
<path style="fill:#3C695E;" d="M256,148.648c-13.682,0-24.774,11.091-24.774,24.774v82.574c0,13.684,11.092,24.774,24.774,24.774
	c13.682,0,24.774-11.091,24.774-24.774v-82.574C280.774,159.739,269.682,148.648,256,148.648z"/>
<path style="fill:#E49429;" d="M302.204,51.633c-12.731-21.947-25.291-40.171-25.82-40.935C271.758,4,264.139,0.003,256,0.003
	c-8.139,0-15.758,3.997-20.384,10.694c-0.529,0.765-13.089,18.989-25.82,40.935c-25.204,43.447-28.119,62.038-28.119,72.242
	c0,40.981,33.341,74.323,74.323,74.323c40.98,0,74.323-33.343,74.323-74.323C330.323,113.671,327.407,95.08,302.204,51.633z"/>
<path style="fill:#F2D6A8;" d="M421.161,231.223H90.839c-13.682,0-24.774,11.094-24.774,24.774v231.226
	c0,13.684,11.092,24.774,24.774,24.774h330.323c13.682,0,24.774-11.091,24.774-24.774V255.997
	C445.935,242.316,434.843,231.223,421.161,231.223z"/>
<path style="fill:#EDC07B;" d="M421.161,231.223H256v280.774h165.161c13.682,0,24.774-11.091,24.774-24.774V255.997
	C445.935,242.316,434.843,231.223,421.161,231.223z"/>
<path style="fill:#C01E77;" d="M421.161,231.223H90.839c-6.572,0-12.873,2.611-17.519,7.259c-4.646,4.644-7.256,10.945-7.256,17.517
	l0.003,102.464c0,11.512,7.929,21.504,19.141,24.123c4.998,1.168,9.522,2.674,14.308,4.271c13.4,4.466,28.588,9.53,57.387,9.53
	c28.796,0,43.986-5.064,57.387-9.53c11.707-3.903,20.954-6.986,41.721-6.986c20.751,0,29.998,3.084,41.707,6.986
	c13.398,4.468,28.586,9.53,57.377,9.53s43.978-5.061,57.377-9.527c4.791-1.599,9.317-3.107,14.318-4.274
	c11.213-2.616,19.146-12.613,19.146-24.125V255.997C445.935,242.316,434.843,231.223,421.161,231.223z"/>
<path style="fill:#7BD9BF;" d="M487.226,511.997H24.774C11.092,511.997,0,500.906,0,487.222c0-13.68,11.092-24.774,24.774-24.774
	h462.452c13.682,0,24.774,11.094,24.774,24.774C512,500.906,500.908,511.997,487.226,511.997z"/>
<path style="fill:#B77220;" d="M330.323,123.874c0-10.204-2.915-28.794-28.119-72.242c-12.731-21.947-25.291-40.171-25.82-40.935
	C271.758,4,264.139,0.003,256,0.003v198.194C296.98,198.197,330.323,164.854,330.323,123.874z"/>
<path style="fill:#A61B67;" d="M421.161,231.223H256v148.648c0.003,0,0.007,0,0.012,0c20.751,0,29.998,3.084,41.707,6.986
	c13.398,4.468,28.586,9.53,57.377,9.53s43.978-5.061,57.377-9.527c4.791-1.599,9.317-3.107,14.318-4.274
	c11.213-2.616,19.146-12.613,19.146-24.125V255.997C445.935,242.316,434.843,231.223,421.161,231.223z"/>
<path style="fill:#72C8B0;" d="M487.226,462.448H256v49.548h231.226c13.682,0,24.774-11.091,24.774-24.774
	C512,473.542,500.908,462.448,487.226,462.448z"/>
</svg>
