<svg viewBox="0 0 512 512" style="enable-background:new 0 0 512 512" xml:space="preserve" xmlns:xlink="http://www.w3.org/1999/xlink" xmlns="http://www.w3.org/2000/svg">
  <defs>
    <linearGradient id="a">
      <stop style="stop-color:#d77461;stop-opacity:.9921568" offset="0"/>
      <stop style="stop-color:#801805;stop-opacity:1" offset="1"/>
    </linearGradient>
    <linearGradient xlink:href="#a" id="b" x1="253" y1="212.1" x2="253" y2="340.2" gradientUnits="userSpaceOnUse"/>
  </defs>
  <path style="fill:#459492" d="M256 85.9a8.4 8.4 0 0 0-8.4 8.4v45h16.8v-45c0-4.7-3.7-8.4-8.4-8.4z"/>
  <path style="fill:#ffd102" d="M211 60.8c0-24 18.5-49.2 45-60.8 26.5 11.6 45 36.8 45 60.8a45 45 0 0 1-90 0z"/>
  <path style="fill:#9ad6d4" d="M267.3 128h-22.6c-6.1 0-11.2 5.1-11.2 11.3v96.4h45v-96.4c0-6.2-5-11.2-11.2-11.2z"/>
  <path style="fill:#ad4a38;fill-opacity:1" d="M86.6 474.1h331.6c24.7 0 45-20.2 45-45V303.3c-145.5-.5-294.6-1.5-421.6 0V429c0 24.8 20.2 45 45 45z"/>
  <ellipse style="fill:#de8787;fill-opacity:1;stroke-width:5;stroke-linecap:round;stroke-miterlimit:4;stroke-dasharray:none" cx="127.2" cy="428.6" rx="18.6" ry="12.5"/>
  <path style="fill:url(#b);stroke-width:1.12903;fill-opacity:1" d="M426.3 212.7H78.4c-26 0-47.2 24.6-47.2 54.7V298c0 23.2 34 47.6 73.7 47.9 39.8.2 25.2-36.6 73.8-37.5 48.5-.9 36.8 36 73.7 36 36.8 0 36.8-36 73.7-36 36.9 0 36.9 36 73.7 36 36.9 0 73.8-22.3 73.8-46.4v-30.6c0-30-21.3-54.7-47.3-54.7z"/>
  <g transform="translate(-22.1 -2.5)">
    <circle style="fill:#fff;fill-opacity:1" cx="178.8" cy="392.9" r="38.9"/>
    <circle style="fill:#000;fill-opacity:1;stroke-width:.642105" cx="178.8" cy="392.9" r="25"/>
  </g>
  <ellipse style="fill:#de8787;fill-opacity:1;stroke-width:5;stroke-linecap:round;stroke-miterlimit:4;stroke-dasharray:none" cx="-377.6" cy="428.6" rx="18.6" ry="12.5" transform="scale(-1 1)"/>
  <g transform="matrix(-1 0 0 1 526.9 -2.5)">
    <circle style="fill:#fff;fill-opacity:1" cx="178.8" cy="392.9" r="38.9"/>
    <circle style="fill:#000;fill-opacity:1;stroke-width:.642105" cx="178.8" cy="392.9" r="25"/>
  </g>
  <path style="fill:none;stroke:#000;stroke-width:5;stroke-linecap:round;stroke-linejoin:miter;stroke-miterlimit:4;stroke-dasharray:none;stroke-opacity:1" d="M227.4 429.3c16.2 14.2 34.2 14.6 50.4-1.8"/>
  <rect style="fill:#f4d7d7;fill-opacity:1;stroke-width:6.2963;stroke-linecap:round;stroke-miterlimit:4;stroke-dasharray:none" width="16" height="28.5" x="432.6" y="343.1" ry="8"/>
  <rect style="fill:#f4d7d7;fill-opacity:1;stroke-width:6.2963;stroke-linecap:round;stroke-miterlimit:4;stroke-dasharray:none" width="16" height="20.9" x="432.6" y="379.1" ry="8"/>
  <path style="fill:#f95;stroke-width:.602171" d="M228.9 77.7C228.9 63.2 240 48 256 41c16 7 27.1 22.2 27.1 36.7a27.1 27.1 0 0 1-54.2 0z"/>
</svg>
